<?xml version="1.0" encoding="utf-8" ?>
<svg xmlns="http://www.w3.org/2000/svg" xmlns:xlink="http://www.w3.org/1999/xlink" width="303" height="299">
	<path fill="#03192D" transform="scale(0.394531 0.389974)" d="M-0 -0L768 0L768 768L-0 768L0 -0Z"/>
	<path fill="#2A95DB" transform="scale(0.394531 0.389974)" d="M572.539 466.679L599.06 470.832L594.284 478.662L577.875 475.782C576.787 475.587 574.075 475.437 573.222 474.821C572.597 474.173 572.018 474.056 571.149 473.882L570.75 473.812C571.806 472.572 571.567 471.715 571.893 470.227C572.116 469.211 572.001 468.552 571.763 467.565L571.67 467.196L572.539 466.679Z"/>
	<defs>
		<linearGradient id="gradient_0" gradientUnits="userSpaceOnUse" x1="225.47899" y1="527.08667" x2="255.64601" y2="508.28836">
			<stop offset="0" stop-color="#00346F"/>
			<stop offset="1" stop-color="#0057A5"/>
		</linearGradient>
	</defs>
	<path fill="url(#gradient_0)" transform="scale(0.394531 0.389974)" d="M211.876 511.655C215.958 511.425 219.937 510.431 223.91 509.537C232.994 507.493 241.637 504.577 250.432 501.587L250.052 502.455L249.707 502.536C248.798 502.755 248.15 502.941 247.373 503.498L247.658 503.925C248.5 505.281 248.682 506.744 249.372 508.125C249.856 509.094 250.565 510.033 251.129 510.97C252.108 512.595 254.116 513.659 255.562 514.841C257.411 516.353 259.012 518.073 260.782 519.662C262.052 520.803 263.099 521.255 264.265 522.673L265.203 523.789C263.401 523.721 261.666 523.616 259.875 523.874L255.331 524.284C251.581 524.325 247.08 523.295 243.434 522.397C239.022 521.309 234.541 520.193 230.276 518.606C224.167 516.332 218.136 513.42 211.876 511.655Z"/>
	<path fill="#013E7B" transform="scale(0.394531 0.389974)" d="M308.4 558.885C313.333 558.655 317.919 557.202 322.68 556.025L355.131 546.508C355.843 547.635 356.365 548.616 357.537 549.304C358.045 551.261 358.4 553.772 359.422 555.491C359.457 557.19 361.116 559.697 362.377 560.9C363.034 561.527 363.637 561.842 363.845 562.78L364.274 562.981C364.799 563.258 364.947 563.431 365.257 563.912L365.888 564.013L366.372 564.599L367.125 565.31C368.08 566.21 368.682 566.873 369.848 567.444C370.445 567.737 370.402 567.996 371.138 568.138L371.627 568.728L372.313 569.122C373.105 569.561 373.813 570.518 374.513 571.138L375 571.731L375.294 571.988C376 572.711 376.51 574.009 376.803 574.968C372.35 574.992 367.628 574.134 363.221 573.508C344.49 570.848 325.718 566.652 308.4 558.885Z"/>
	<path fill="#DEE7EA" transform="scale(0.394531 0.389974)" d="M341.121 451.622C345.183 449.46 350.471 448.2 354.86 446.734L355.773 447.416L355.802 448.083C352.685 450.53 347.682 452.659 343.918 454.033C340.162 456.042 311.377 470.598 310.745 471.593L267.018 494.269L254.99 499.669C253.938 500.106 251.061 500.854 250.432 501.587C241.637 504.577 232.994 507.493 223.91 509.537C219.937 510.431 215.958 511.425 211.876 511.655L201.387 505.656L235.863 496.701C245.957 493.669 255.957 489.566 265.604 485.319C287.098 475.857 307.369 464.233 329.425 455.957C333.274 454.512 337.165 452.674 341.121 451.622Z"/>
	<path fill="#A0D7F8" transform="scale(0.394531 0.389974)" d="M341.121 451.622C345.183 449.46 350.471 448.2 354.86 446.734L355.773 447.416L355.802 448.083C352.685 450.53 347.682 452.659 343.918 454.033C345.455 452.125 346.243 452.209 348.242 451.209C348.745 450.957 349.205 450.692 349.735 450.492L350.062 450.375L349.374 449.5L348.151 449.889L348.187 450.495L347.624 450.92C345.562 450.813 343.691 451.628 341.576 451.627L341.121 451.622Z"/>
	<defs>
		<linearGradient id="gradient_1" gradientUnits="userSpaceOnUse" x1="196.30328" y1="418.35507" x2="197.9481" y2="434.41577">
			<stop offset="0" stop-color="#00295E"/>
			<stop offset="1" stop-color="#085B9A"/>
		</linearGradient>
	</defs>
	<path fill="url(#gradient_1)" transform="scale(0.394531 0.389974)" d="M223.718 415.479L249.003 415.422L250.383 415.688C250.609 417.086 249.798 418.137 249.07 419.25L249.566 419.438L250.045 419.712L250.309 419.685C250.06 421.153 248.577 422.503 247.336 423.37C246.623 423.868 247.117 423.549 246.239 423.837C240.659 425.665 235.159 429.04 229.465 430.287C227.699 430.673 226.056 431.213 224.25 431.438C222.438 431.663 220.565 432.322 218.75 432.318L218.344 432.656C221.172 432.794 223.923 432.806 226.688 433.125L228 433.033C229.271 433.018 230.538 433.108 231.82 432.982C232.811 432.885 233.854 432.985 234.844 433.082C236.071 433.202 237.423 432.987 238.628 433.185C239.139 433.269 239.335 433.508 239.919 433.521C241.309 433.55 243.393 433.231 244.661 433.725C245.239 433.949 245.679 433.847 246.277 433.809L251.812 433.875L251.625 434.09C250.001 434.13 248.291 434.059 246.686 434.293L143.655 433.067L142.629 424.073C142.467 422.959 142.169 421.844 142.558 420.755L143.062 420.57C144.591 421.569 147.029 420.453 148.781 421.127C149.518 421.41 149.816 421.62 150.656 421.689L150.562 420.941C151.512 420.941 151.109 420.828 151.906 421.242C152.465 421.532 152.673 421.638 153.281 421.689L153.188 420.941L154.125 420.941L154.753 421.184L156.188 421.316C159.043 422.314 164.235 421.69 167.437 421.691C168.103 421.026 169.497 421.316 170.438 421.316L170.812 420.941L174.75 420.941C175.191 421.053 175.616 421.23 176.062 421.316C176.934 420.444 184.127 420.941 185.812 420.941C186.438 420.331 187.391 420.504 188.25 420.453L188.328 420.845L189.188 420.941L189.562 420.566C190.419 420.582 191.373 420.328 192.177 420.415L194.25 420.566L194.812 420.257C195.442 420.416 196.042 420.5 196.688 420.566L197.25 420.191C198.095 420.517 197.657 420.391 198.562 420.566C199.513 419.615 211.339 420.191 213.562 420.191C214.207 419.546 216.333 419.816 217.312 419.816L217.688 419.441L218.344 419.814L218.812 419.441L219.469 419.814L219.938 419.441L220.594 419.814L221.062 419.441L221.719 419.814C222.376 419.291 222.505 419.441 223.312 419.441L223.969 419.814C225.079 418.931 233.614 419.441 235.5 419.441C236.421 418.827 237.94 419.066 239.062 419.066C239.812 418.317 242.227 418.857 243.377 418.502C243.893 418.343 244.361 418.263 244.877 418.127C245.668 417.919 245.855 417.778 246.703 417.866C247.278 417.609 247.792 417.372 248.416 417.251L248.812 417.191L248.816 416.062L248.207 416.198C246.759 415.486 244.161 415.863 242.553 415.867L230.426 415.89C228.186 415.891 225.886 416.104 223.718 415.479Z"/>
	<path fill="#013E7B" transform="scale(0.394531 0.389974)" d="M142.629 424.073C142.467 422.959 142.169 421.844 142.558 420.755L143.062 420.57C144.591 421.569 147.029 420.453 148.781 421.127C149.518 421.41 149.816 421.62 150.656 421.689L150.562 420.941C151.512 420.941 151.109 420.828 151.906 421.242C152.465 421.532 152.673 421.638 153.281 421.689L153.188 420.941L154.125 420.941L154.753 421.184L156.188 421.316C159.043 422.314 164.235 421.69 167.437 421.691C168.103 421.026 169.497 421.316 170.438 421.316L170.812 420.941L174.75 420.941C175.191 421.053 175.616 421.23 176.062 421.316C176.934 420.444 184.127 420.941 185.812 420.941C186.438 420.331 187.391 420.504 188.25 420.453L188.328 420.845L189.188 420.941L189.562 420.566C190.419 420.582 191.373 420.328 192.177 420.415L194.25 420.566L194.812 420.257C195.442 420.416 196.042 420.5 196.688 420.566L197.25 420.191C198.095 420.517 197.657 420.391 198.562 420.566C199.513 419.615 211.339 420.191 213.562 420.191C214.207 419.546 216.333 419.816 217.312 419.816L217.688 419.441L218.344 419.814L218.812 419.441L219.469 419.814L219.938 419.441L220.594 419.814L221.062 419.441L221.719 419.814C222.376 419.291 222.505 419.441 223.312 419.441L223.969 419.814C225.079 418.931 233.614 419.441 235.5 419.441C236.421 418.827 237.94 419.066 239.062 419.066C239.812 418.317 242.227 418.857 243.377 418.502C243.893 418.343 244.361 418.263 244.877 418.127C245.668 417.919 245.855 417.778 246.703 417.866C245.874 419.004 242.354 419.525 240.949 419.742L234.656 420.469L223.904 421.551C222.46 421.675 220.871 421.627 219.469 421.96C218.053 422.295 216.345 422.146 214.877 422.314L212.059 422.479C211.539 422.512 211.694 422.517 211.125 422.812L210.832 422.68C210.302 422.515 210.028 422.653 209.515 422.747L204.656 423.08C202.243 423.279 199.342 423.598 196.969 423.469L197.062 423.184L196.355 423.406C195.149 423.766 193.783 423.298 192.75 423.961L192.094 423.844L192.562 423.184C191.609 423.553 190.788 423.892 189.75 423.938L189.938 423.559C188.491 423.893 187.224 424.45 185.719 424.219L186.188 423.559L185.706 423.831C185.016 424.178 184.503 424.238 183.75 424.312L184.688 423.75L184.507 423.56C183.977 423.737 183.528 423.948 183.023 424.165C181.534 424.805 178.147 424.437 176.438 424.432L176.625 424.125L177.656 424.031C176.697 423.976 176.055 423.976 175.129 424.235C174.187 424.499 173.472 424.455 172.506 424.405L159.562 424.316L159.188 424.691C158.035 424.69 155.063 425.063 154.125 424.688C154.081 424.67 153.243 423.968 153.188 423.941C152.792 423.748 151.352 423.784 150.839 423.717C149.141 423.498 146.533 423.31 144.939 423.923C144.209 423.747 144.049 423.579 143.329 423.86C142.757 424.083 142.984 424.053 142.629 424.073Z"/>
	<defs>
		<linearGradient id="gradient_2" gradientUnits="userSpaceOnUse" x1="271.61148" y1="527.14209" x2="293.47534" y2="489.79727">
			<stop offset="0" stop-color="#00529E"/>
			<stop offset="1" stop-color="#0D8CD9"/>
		</linearGradient>
	</defs>
	<path fill="url(#gradient_2)" transform="scale(0.394531 0.389974)" d="M310.745 471.593L310.858 472.127C307.481 474.142 283.799 486.047 283.405 486.87C284.672 488.228 285.755 489.529 287.444 490.356C289.335 491.282 291.002 492.57 292.944 493.417C295.966 494.734 299.339 495.565 302.444 496.731C304.191 497.387 305.864 498.318 307.544 498.983L308.072 499.076C309.204 499.341 310.023 500.215 310.997 500.813C313.08 502.093 315.9 503.664 318.267 504.215C319.389 505.315 320.19 506.558 320.894 507.962L321.941 508.312L322.5 507.941L323.25 507.938L323.625 507.566L324.299 507.401C325.714 507.022 324.446 507.436 325.5 506.816C325.797 506.641 326.399 506.612 326.732 506.546C327.512 506.391 326.906 506.528 327.75 506.066C328.118 505.865 328.477 505.824 328.875 505.691L329.83 505.262C330.378 505.012 330.855 505.128 331.316 504.938L331.875 504.566C332.513 504.218 332.237 504.522 333 504.191C334.018 503.75 334.204 503.409 335.441 503.438L336 503.066C336.5 502.787 337.067 502.697 337.594 502.502L338.571 502.024L338.881 502.715C334.951 504.591 330.615 505.879 326.532 507.418C307.878 514.451 288.556 521.431 268.675 524.005C264.544 524.539 259.404 525.212 255.331 524.284L259.875 523.874C261.666 523.616 263.401 523.721 265.203 523.789L264.265 522.673C263.099 521.255 262.052 520.803 260.782 519.662C259.012 518.073 257.411 516.353 255.562 514.841C254.116 513.659 252.108 512.595 251.129 510.97C250.565 510.033 249.856 509.094 249.372 508.125C248.682 506.744 248.5 505.281 247.658 503.925L247.373 503.498C248.15 502.941 248.798 502.755 249.707 502.536L250.052 502.455L250.432 501.587C251.061 500.854 253.938 500.106 254.99 499.669L267.018 494.269L310.745 471.593Z"/>
	<defs>
		<linearGradient id="gradient_3" gradientUnits="userSpaceOnUse" x1="478.90906" y1="522.0116" x2="476.76736" y2="483.51523">
			<stop offset="0" stop-color="#003E83"/>
			<stop offset="1" stop-color="#016AB4"/>
		</linearGradient>
	</defs>
	<path fill="url(#gradient_3)" transform="scale(0.394531 0.389974)" d="M357.665 537.985L359.252 536.627C359.822 536.625 360.251 536.562 360.75 536.25L361.219 535.877C361.798 535.875 361.572 535.93 362.092 535.722L364.125 534.941C365.615 534.091 367.786 533.397 369.442 532.845L371.062 532.316C371.767 532.096 372.19 531.963 372.82 531.543L373.312 531.191C374.198 531.481 374.825 530.919 375.691 530.657C377.055 530.246 378.566 529.785 379.835 529.154C380.337 528.905 380.894 528.809 381.375 528.566L381.937 528.191C383.007 528.319 383.116 527.967 384.002 527.627L384.562 527.441C384.982 525.983 385.902 525.125 386.418 523.69C386.127 522.456 385.997 520.758 385.016 519.921C383.906 518.973 383.311 515.999 382.508 514.531C382.218 514.003 381.979 513.551 381.767 512.981L381.571 512.443L381.288 512.103C380.736 511.118 380.352 510.047 379.729 509.049C379.158 508.137 379.228 507.609 378.94 506.65C378.366 504.734 377.415 502.778 376.708 500.887C398.907 495.06 421.073 491.754 443.764 488.529C478.163 483.639 512.861 478.918 547.661 481.81C558.082 482.675 568.633 484.028 578.778 486.649C574.784 491.354 570.327 495.35 566.605 500.321C565.916 500.868 564.78 502.019 564.008 502.339L561.274 503.977C548.881 504.556 536.579 503.964 524.169 504.922C521.609 505.119 518.504 505.048 516.027 505.633C473.993 510.239 432.667 520.303 392.499 533.359L355.131 546.508L322.68 556.025C317.919 557.202 313.333 558.655 308.4 558.885L300.813 556.41L357.665 537.985Z"/>
	<defs>
		<linearGradient id="gradient_4" gradientUnits="userSpaceOnUse" x1="434.80655" y1="532.75879" x2="430.83176" y2="513.25391">
			<stop offset="0" stop-color="#74B0DC"/>
			<stop offset="1" stop-color="#8CDCFB"/>
		</linearGradient>
	</defs>
	<path fill="url(#gradient_4)" transform="scale(0.394531 0.389974)" d="M357.665 537.985C362.121 537.096 366.893 534.719 371.18 533.126L394.55 524.812C419.596 516.162 445.021 509.745 471.043 504.909C496.851 500.112 522.512 496.794 548.812 498.335L561.345 499.222C563.203 499.437 564.901 499.492 566.605 500.321C565.916 500.868 564.78 502.019 564.008 502.339L561.274 503.977C548.881 504.556 536.579 503.964 524.169 504.922C521.609 505.119 518.504 505.048 516.027 505.633C473.993 510.239 432.667 520.303 392.499 533.359L355.131 546.508L322.68 556.025C317.919 557.202 313.333 558.655 308.4 558.885L300.813 556.41L357.665 537.985Z"/>
	<path fill="#A0D7F8" transform="scale(0.394531 0.389974)" d="M516.027 505.633C515.452 505.543 514.31 505.543 513.938 505.125L516.562 505.125C517.633 504.848 518.969 504.966 519.941 504.562C520.717 504.241 520.794 504.307 521.625 504.375L521.814 504.094C521.331 504.001 520.969 503.975 520.484 504.082C518.656 504.489 516.961 504.395 515.105 504.329C516.245 503.974 517.445 503.773 518.625 503.596C530.382 501.83 541.985 501.783 553.833 501.736C556.31 501.726 562.04 500.899 564.008 502.339L561.274 503.977C548.881 504.556 536.579 503.964 524.169 504.922C521.609 505.119 518.504 505.048 516.027 505.633Z"/>
	<defs>
		<linearGradient id="gradient_5" gradientUnits="userSpaceOnUse" x1="422.99127" y1="596.07062" x2="482.93051" y2="470.11505">
			<stop offset="0" stop-color="#004096"/>
			<stop offset="1" stop-color="#14A1EE"/>
		</linearGradient>
	</defs>
	<path fill="url(#gradient_5)" transform="scale(0.394531 0.389974)" d="M516.027 505.633C518.504 505.048 521.609 505.119 524.169 504.922C536.579 503.964 548.881 504.556 561.274 503.977L528.169 523.804C511.447 533.297 494.055 541.871 476.537 549.779C450.79 561.402 425.267 572.145 396.848 574.798C392.532 575.201 388.222 575.321 383.889 575.311C381.596 575.305 379.043 575.404 376.803 574.968C376.51 574.009 376 572.711 375.294 571.988L375 571.731L374.513 571.138C373.813 570.518 373.105 569.561 372.313 569.122L371.627 568.728L371.138 568.138C370.402 567.996 370.445 567.737 369.848 567.444C368.682 566.873 368.08 566.21 367.125 565.31L366.372 564.599L365.888 564.013L365.257 563.912C364.947 563.431 364.799 563.258 364.274 562.981L363.845 562.78C363.637 561.842 363.034 561.527 362.377 560.9C361.116 559.697 359.457 557.19 359.422 555.491C358.4 553.772 358.045 551.261 357.537 549.304C356.365 548.616 355.843 547.635 355.131 546.508L392.499 533.359C432.667 520.303 473.993 510.239 516.027 505.633Z"/>
	<defs>
		<linearGradient id="gradient_6" gradientUnits="userSpaceOnUse" x1="446.93365" y1="487.15564" x2="436.86395" y2="427.04129">
			<stop offset="0" stop-color="#29ABEC"/>
			<stop offset="1" stop-color="#4BD3FF"/>
		</linearGradient>
	</defs>
	<path fill="url(#gradient_6)" transform="scale(0.394531 0.389974)" d="M354.86 446.734L377.968 439.238C389.166 435.772 400.364 432.448 412.019 430.884C424.744 429.176 437.565 429.257 450.292 427.429L487.857 421.147C505.968 418.853 524.185 418.531 542.392 419.459C551.98 419.948 561.393 420.884 570.732 423.215C573.703 423.956 576.8 424.618 579.635 425.79C584.056 426.798 588.398 428.533 592.622 430.175L614.064 439.639L604.555 461.764C603.576 463.803 602.689 466.538 601.047 468.123L599.06 470.832L572.539 466.679L571.67 467.196L571.763 467.565C572.001 468.552 572.116 469.211 571.893 470.227C571.567 471.715 571.806 472.572 570.75 473.812L571.149 473.882C572.018 474.056 572.597 474.173 573.222 474.821C562.307 473.695 551.632 471.453 540.623 470.744C514.294 469.047 488.477 472.805 462.502 476.583L431.625 481.529C426.949 482.3 421.767 483.61 417.063 483.743L416.721 483.822C412.811 484.688 408.707 485.057 404.743 485.65L384.191 489.445L355.664 497.062C350.056 498.811 344.531 501.197 338.881 502.715L338.571 502.024L337.594 502.502C337.067 502.697 336.5 502.787 336 503.066L335.441 503.438C334.204 503.409 334.018 503.75 333 504.191C332.237 504.522 332.513 504.218 331.875 504.566L331.316 504.938C330.855 505.128 330.378 505.012 329.83 505.262L328.875 505.691C328.477 505.824 328.118 505.865 327.75 506.066C326.906 506.528 327.512 506.391 326.732 506.546C326.399 506.612 325.797 506.641 325.5 506.816C324.446 507.436 325.714 507.022 324.299 507.401L323.625 507.566L323.25 507.938L322.5 507.941L321.941 508.312L320.894 507.962C320.19 506.558 319.389 505.315 318.267 504.215C315.9 503.664 313.08 502.093 310.997 500.813C310.023 500.215 309.204 499.341 308.072 499.076L307.544 498.983C305.864 498.318 304.191 497.387 302.444 496.731C299.339 495.565 295.966 494.734 292.944 493.417C291.002 492.57 289.335 491.282 287.444 490.356C285.755 489.529 284.672 488.228 283.405 486.87C283.799 486.047 307.481 474.142 310.858 472.127L310.745 471.593C311.377 470.598 340.162 456.042 343.918 454.033C347.682 452.659 352.685 450.53 355.802 448.083L355.773 447.416L354.86 446.734Z"/>
	<path fill="#D2FFFF" transform="scale(0.394531 0.389974)" d="M412.015 477.925L411.549 478.126C409.019 478.867 405.3 478.735 402.604 479.072L391.994 480.452C388.84 480.967 376.687 484.166 374.752 483.326C376.346 482.325 379.019 482.032 380.864 481.578C391.087 479.058 400.814 477.374 411.307 476.376C411.265 476.892 411.183 477.071 411.408 477.552L412.015 477.925Z"/>
	<path fill="#DEE7EA" transform="scale(0.394531 0.389974)" d="M411.307 476.376L450.254 471.393L450.253 472.159L449.896 472.172C448.315 472.25 447.016 472.758 445.492 473.009C444.48 473.176 443.733 473.042 442.688 473.387L442.5 473.441C443.351 473.547 443.676 473.511 444.469 473.252C445.18 473.019 445.708 473.051 446.441 473.062L447 472.691C447.889 472.69 448.985 472.95 449.625 472.316L451.898 472.096C452.628 471.996 452.296 472.031 453.111 472.034C453.916 472.037 453.529 472.083 454.166 471.926C455.15 471.684 456.319 471.861 457.381 471.691L457.775 471.859C455.003 472.898 451.058 473.112 448.09 473.473L433.875 475.379C430.171 475.838 425.989 475.991 422.398 476.934L412.015 477.925L411.408 477.552C411.183 477.071 411.265 476.892 411.307 476.376Z"/>
	<defs>
		<linearGradient id="gradient_7" gradientUnits="userSpaceOnUse" x1="595.20068" y1="470.02112" x2="580.57733" y2="444.22766">
			<stop offset="0" stop-color="#0051A0"/>
			<stop offset="1" stop-color="#088AD9"/>
		</linearGradient>
	</defs>
	<path fill="url(#gradient_7)" transform="scale(0.394531 0.389974)" d="M579.635 425.79C584.056 426.798 588.398 428.533 592.622 430.175L614.064 439.639L604.555 461.764C603.576 463.803 602.689 466.538 601.047 468.123C597.884 466.506 593.396 466.124 589.912 465.513C569.504 461.933 548.867 460.389 528.162 460.532C526.377 460.205 524.38 460.346 522.562 460.321C523.825 459.662 525.852 459.92 527.28 459.919C531.656 459.914 535.991 460.342 540.375 460.033C541.764 459.935 543.137 460.122 544.5 460.033C546.123 459.927 548.678 459.756 550.219 460.27C550.724 460.439 551.088 460.457 551.625 460.408C552.681 460.312 553.609 460.343 554.637 460.653L555 460.783C556.72 459.745 557.636 458.696 559.117 457.492L559.523 457.18L560.225 456.598C560.85 456.204 561.364 456.021 561.904 455.489C563.506 453.912 565.804 453.336 567.389 452.019C568.619 450.997 570.551 449.962 572.018 449.292L580.482 444.954L587.81 441.481C590.815 439.984 594.62 438.169 597.821 437.242C599.569 436.735 601.195 435.965 602.85 435.214L599.188 433.685L594.941 431.936L591.688 430.685L589.763 429.849L588.939 429.469C587.028 429.107 581.486 427.501 580.174 426.3L579.635 425.79Z"/>
	<defs>
		<linearGradient id="gradient_8" gradientUnits="userSpaceOnUse" x1="516.95367" y1="484.17673" x2="512.33636" y2="461.444">
			<stop offset="0" stop-color="#43B3F1"/>
			<stop offset="1" stop-color="#89EFFF"/>
		</linearGradient>
	</defs>
	<path fill="url(#gradient_8)" transform="scale(0.394531 0.389974)" d="M528.162 460.532C548.867 460.389 569.504 461.933 589.912 465.513C593.396 466.124 597.884 466.506 601.047 468.123L599.06 470.832L572.539 466.679L571.67 467.196L571.763 467.565C572.001 468.552 572.116 469.211 571.893 470.227C571.567 471.715 571.806 472.572 570.75 473.812L571.149 473.882C572.018 474.056 572.597 474.173 573.222 474.821C562.307 473.695 551.632 471.453 540.623 470.744C514.294 469.047 488.477 472.805 462.502 476.583L431.625 481.529C426.949 482.3 421.767 483.61 417.063 483.743C416.227 483.651 414.705 483.973 414.094 483.469L416.438 483.375C417.18 483.177 418.022 483.203 418.688 483C419.782 482.666 418.899 482.723 419.888 482.677C420.669 482.642 421.445 482.693 422.217 482.538L422.625 482.438L423.562 482.25C424.664 481.871 425.535 482.146 426.562 481.875C427.212 481.703 427.818 481.661 428.438 481.5C429.646 481.187 428.624 481.235 429.474 481.177C430.064 481.137 430.61 481.154 431.197 481.037L431.625 480.938L432.562 480.75C433.464 480.44 432.915 480.469 433.681 480.427C434.37 480.39 435.034 480.424 435.717 480.287L436.125 480.188L437.062 480C437.964 479.69 437.415 479.719 438.181 479.677C438.87 479.64 439.534 479.674 440.217 479.537L440.625 479.438L441.562 479.25C442.664 478.871 443.535 479.146 444.562 478.875C445.212 478.703 445.818 478.661 446.438 478.5C447.326 478.27 448.256 478.353 449.062 478.125C449.831 477.908 450.695 477.883 451.406 477.656C452.426 477.331 453.161 477.506 454.125 477.283C455.5 476.965 453.439 477.161 455.326 477.035L456 477C456.929 476.381 458.083 476.625 459.188 476.625L459.191 476.062C458.351 475.455 457.481 474.905 457.006 473.951L456.735 473.366C455.776 472.832 454.235 473.561 453.108 473.685C450.038 474.021 446.833 474.305 443.813 474.931C443.138 475.071 442.667 475.158 441.97 475.17C440.366 475.197 438.927 475.647 437.358 475.871L431.25 476.559C429.801 476.768 428.364 476.825 426.94 477.184C425.322 477.591 424.495 477.57 422.867 477.083L422.398 476.934C425.989 475.991 430.171 475.838 433.875 475.379L448.09 473.473C451.058 473.112 455.003 472.898 457.775 471.859L457.381 471.691C456.319 471.861 455.15 471.684 454.166 471.926C453.529 472.083 453.916 472.037 453.111 472.034C452.296 472.031 452.628 471.996 451.898 472.096L449.625 472.316C448.985 472.95 447.889 472.69 447 472.691L446.441 473.062C445.708 473.051 445.18 473.019 444.469 473.252C443.676 473.511 443.351 473.547 442.5 473.441L442.688 473.387C443.733 473.042 444.48 473.176 445.492 473.009C447.016 472.758 448.315 472.25 449.896 472.172L450.253 472.159L450.254 471.393L528.162 460.532Z"/>
	<defs>
		<linearGradient id="gradient_9" gradientUnits="userSpaceOnUse" x1="518.27612" y1="484.74463" x2="522.6236" y2="455.80127">
			<stop offset="0" stop-color="#F4F5FB"/>
			<stop offset="1" stop-color="#DEFFFF"/>
		</linearGradient>
	</defs>
	<path fill="url(#gradient_9)" transform="scale(0.394531 0.389974)" d="M528.162 460.532C548.867 460.389 569.504 461.933 589.912 465.513C593.396 466.124 597.884 466.506 601.047 468.123L599.06 470.832L572.539 466.679C559.722 465.002 546.407 463.796 533.479 463.847C519.82 463.9 506.106 465.285 492.562 466.98L467.262 470.517C464.128 470.949 460.924 471.63 457.775 471.859L457.381 471.691C456.319 471.861 455.15 471.684 454.166 471.926C453.529 472.083 453.916 472.037 453.111 472.034C452.296 472.031 452.628 471.996 451.898 472.096L449.625 472.316C448.985 472.95 447.889 472.69 447 472.691L446.441 473.062C445.708 473.051 445.18 473.019 444.469 473.252C443.676 473.511 443.351 473.547 442.5 473.441L442.688 473.387C443.733 473.042 444.48 473.176 445.492 473.009C447.016 472.758 448.315 472.25 449.896 472.172L450.253 472.159L450.254 471.393L528.162 460.532Z"/>
	<defs>
		<linearGradient id="gradient_10" gradientUnits="userSpaceOnUse" x1="452.97821" y1="516.86359" x2="263.80188" y2="219.39394">
			<stop offset="0" stop-color="#CBD4D4"/>
			<stop offset="1" stop-color="white"/>
		</linearGradient>
	</defs>
	<path fill="url(#gradient_10)" transform="scale(0.394531 0.389974)" d="M223.718 415.479L141.347 415.539C141.364 404.347 141.033 392.654 149.671 384.188C153.461 380.473 157.792 378.963 163.042 379.074C165.11 379.117 167.244 379.519 169.253 380.007L169.354 379.604C171.223 372.508 175.507 367.933 181.766 364.346L184.025 363.074C185.451 344.592 189.302 326.486 195.938 309.137C207.954 277.721 228.994 248.949 254.438 227.098C285.204 200.675 324.148 184.749 364.411 180.772C374.406 179.785 384.558 179.243 394.586 180.017C410.491 181.243 426.316 183.674 441.64 188.226C478.927 199.303 513.751 222.755 538.992 252.116C554.707 270.396 566.685 293.147 574.346 315.941C577.234 324.533 579.412 333.426 581.452 342.251L584.105 355.228L585.225 362.773C585.315 363.437 585.345 365.192 585.614 365.727C585.685 365.866 589.177 367.221 589.571 367.395C595.063 369.822 600.28 372.945 605.287 376.242C610.296 379.541 615.866 383.527 619.316 388.52C623.4 394.431 625.181 402.087 625.961 409.126L597.188 399.156C587.355 396.015 576.998 393.492 566.842 391.652C515.565 382.363 462.076 387.682 411.522 398.638C388.409 403.647 365.787 409.682 343.375 417.264L315.262 427.242C287.15 438.509 260.733 454.225 232.125 464.245C218.885 468.882 205.021 472.763 191.237 475.374C185.094 476.538 178.721 476.926 172.647 478.237C170.584 474.615 168.062 471.374 165.454 468.133C172.887 466.348 180.205 463.452 187.507 461.135C204.909 455.615 221.859 450.2 238.499 442.584C243.337 440.369 248.477 438.131 253.07 435.45C252.041 434.324 248.326 434.433 246.686 434.293C248.291 434.059 250.001 434.13 251.625 434.09L251.812 433.875L246.277 433.809C245.679 433.847 245.239 433.949 244.661 433.725C243.393 433.231 241.309 433.55 239.919 433.521C239.335 433.508 239.139 433.269 238.628 433.185C237.423 432.987 236.071 433.202 234.844 433.082C233.854 432.985 232.811 432.885 231.82 432.982C230.538 433.108 229.271 433.018 228 433.033L226.688 433.125C223.923 432.806 221.172 432.794 218.344 432.656L218.75 432.318C220.565 432.322 222.438 431.663 224.25 431.438C226.056 431.213 227.699 430.673 229.465 430.287C235.159 429.04 240.659 425.665 246.239 423.837C247.117 423.549 246.623 423.868 247.336 423.37C248.577 422.503 250.06 421.153 250.309 419.685L250.045 419.712L249.566 419.438L249.07 419.25C249.798 418.137 250.609 417.086 250.383 415.688L249.003 415.422L223.718 415.479Z"/>
	<path fill="#9B7422" transform="scale(0.394531 0.389974)" d="M509.989 262.169C513.729 262.29 520.042 261.607 523.374 263.249L523.738 263.776C525.56 266.379 527.801 268.753 529.712 271.312C534.371 277.551 538.606 284.003 542.391 290.809C543.801 293.345 545.501 296.004 546.492 298.733C546.112 299.347 545.828 299.882 545.311 300.386L541.687 300.648C538.303 299.111 530.068 285.974 527.161 282.33L509.989 262.169Z"/>
	<path fill="#50A4D1" transform="scale(0.394531 0.389974)" d="M277.076 376.769C275.945 376.841 274.41 376.161 273.274 375.845L264.541 373.645C260.862 372.841 257.425 372.441 253.654 372.31C257.079 370.717 260.175 368.61 263.516 366.869C269.599 363.699 276.201 360.906 282.687 358.7C302.789 351.861 325.189 353.687 344.273 363.061L343.803 363.538L343.481 363.358C341.656 362.358 339.352 361.614 337.406 360.844L336.924 360.606C336.294 360.319 335.77 360.27 335.107 360.137C334.092 359.933 335.556 360.211 334.126 359.652L333.661 359.627C332.955 359.566 333.253 359.632 332.611 359.22C331.829 358.717 331.671 358.981 330.887 358.788L330.375 358.542C329.287 358.163 328.127 358.138 327.015 357.706C326.249 357.408 325.579 357.288 324.768 357.17C323.984 357.055 322.471 356.565 321.836 356.984C320.49 357.875 318.841 358.139 317.25 357.978L316.911 358.251C314.901 359.772 313.583 358.944 311.601 359.755C310.769 360.096 309.59 360.09 308.701 360.111C307.809 360.133 307.227 360.238 306.375 360.476L305.642 360.646C304.674 360.876 303.82 361.321 302.869 361.602L302.401 361.758L293.52 364.684C291.318 365.362 289.06 365.778 286.94 366.735C283.136 368.451 279.037 369.628 275.275 371.419C273.531 372.25 271.901 372.742 270.391 373.986C270.896 374.493 270.597 374.269 271.312 374.625L271.875 374.533L272.171 374.684C273.73 375.449 275.336 375.478 276.919 376.135L277.076 376.769Z"/>
	<defs>
		<linearGradient id="gradient_11" gradientUnits="userSpaceOnUse" x1="319.5643" y1="398.74365" x2="326.56677" y2="357.24799">
			<stop offset="0" stop-color="#0076CC"/>
			<stop offset="1" stop-color="#37C7FF"/>
		</linearGradient>
	</defs>
	<path fill="url(#gradient_11)" transform="scale(0.394531 0.389974)" d="M277.076 376.769L276.919 376.135C275.336 375.478 273.73 375.449 272.171 374.684L271.875 374.533L271.312 374.625C270.597 374.269 270.896 374.493 270.391 373.986C271.901 372.742 273.531 372.25 275.275 371.419C279.037 369.628 283.136 368.451 286.94 366.735C289.06 365.778 291.318 365.362 293.52 364.684L302.401 361.758L302.869 361.602C303.82 361.321 304.674 360.876 305.642 360.646L306.375 360.476C307.227 360.238 307.809 360.133 308.701 360.111C309.59 360.09 310.769 360.096 311.601 359.755C313.583 358.944 314.901 359.772 316.911 358.251L317.25 357.978C318.841 358.139 320.49 357.875 321.836 356.984C322.471 356.565 323.984 357.055 324.768 357.17C325.579 357.288 326.249 357.408 327.015 357.706C328.127 358.138 329.287 358.163 330.375 358.542L330.887 358.788C331.671 358.981 331.829 358.717 332.611 359.22C333.253 359.632 332.955 359.566 333.661 359.627L334.126 359.652C335.556 360.211 334.092 359.933 335.107 360.137C335.77 360.27 336.294 360.319 336.924 360.606L337.406 360.844C339.352 361.614 341.656 362.358 343.481 363.358L343.803 363.538L344.273 363.061C352.043 366.252 359.446 371.26 366.343 375.994C370.334 378.733 374.479 381.368 377.92 384.797L328.024 401.272C318.993 395.892 310.082 390.549 300.551 386.062C292.867 382.445 285.075 379.577 277.076 376.769Z"/>
	<defs>
		<linearGradient id="gradient_12" gradientUnits="userSpaceOnUse" x1="238.67464" y1="446.55127" x2="283.91379" y2="381.37238">
			<stop offset="0" stop-color="#00478F"/>
			<stop offset="1" stop-color="#078EE2"/>
		</linearGradient>
	</defs>
	<path fill="url(#gradient_12)" transform="scale(0.394531 0.389974)" d="M249.003 415.422L250.312 415.096C249.033 403.647 246.304 395.216 237.044 387.797L231.697 384.042C233.907 382.622 236.152 381.086 238.575 380.058C245.398 377.164 252.394 377.695 259.484 379.254C280.793 383.938 299.787 395.478 319.365 404.624L253.07 435.45C252.041 434.324 248.326 434.433 246.686 434.293C248.291 434.059 250.001 434.13 251.625 434.09L251.812 433.875L246.277 433.809C245.679 433.847 245.239 433.949 244.661 433.725C243.393 433.231 241.309 433.55 239.919 433.521C239.335 433.508 239.139 433.269 238.628 433.185C237.423 432.987 236.071 433.202 234.844 433.082C233.854 432.985 232.811 432.885 231.82 432.982C230.538 433.108 229.271 433.018 228 433.033L226.688 433.125C223.923 432.806 221.172 432.794 218.344 432.656L218.75 432.318C220.565 432.322 222.438 431.663 224.25 431.438C226.056 431.213 227.699 430.673 229.465 430.287C235.159 429.04 240.659 425.665 246.239 423.837C247.117 423.549 246.623 423.868 247.336 423.37C248.577 422.503 250.06 421.153 250.309 419.685L250.045 419.712L249.566 419.438L249.07 419.25C249.798 418.137 250.609 417.086 250.383 415.688L249.003 415.422Z"/>
	<defs>
		<linearGradient id="gradient_13" gradientUnits="userSpaceOnUse" x1="449.24011" y1="358.87039" x2="504.81979" y2="328.65375">
			<stop offset="0" stop-color="#0068B6"/>
			<stop offset="1" stop-color="#31BEFF"/>
		</linearGradient>
	</defs>
	<path fill="url(#gradient_13)" transform="scale(0.394531 0.389974)" d="M441.598 318.001C452.277 318.008 463.848 317.427 474.305 319.65C486.315 322.204 498.463 330.425 507.028 338.983C514.201 346.15 519.652 353.908 524.231 362.943L446.232 369.482C447.788 368.041 450.082 368.588 452.062 368.066C452.743 367.887 452.897 367.771 453.645 367.823C454.324 367.87 454.775 367.826 455.438 367.691L454.589 367.418C453.869 365.666 452.808 363.887 451.729 362.33L451.058 361.382C450.391 360.183 449.357 359.251 448.803 358.073C448.106 356.591 447.142 355.282 446.43 353.814C445.768 352.451 445.373 351.004 444.757 349.638C443.911 347.763 442.552 343.662 442.644 341.657C442.675 340.999 442.828 340.393 442.538 339.773C441.441 337.425 441.677 332.808 441.942 330.188C442.006 329.55 442.26 329.099 442.178 328.44C442.102 327.835 442.081 328.108 442.203 327.428L442.331 326.81C442.806 324.279 444.098 321.36 443.685 318.834L441.598 318.001Z"/>
	<path fill="#03192D" transform="scale(0.394531 0.389974)" d="M527.161 282.33C530.068 285.974 538.303 299.111 541.687 300.648L545.311 300.386C545.828 299.882 546.112 299.347 546.492 298.733C550.366 306.484 554.617 314.739 557.06 323.067L567.545 363.19C559.043 362.101 550.493 361.55 541.922 361.844L533.991 362.423C533.758 362.445 532.146 362.666 532.04 362.611C531.999 362.589 531.465 361.469 531.4 361.341L527.587 353.697C523.805 346.73 519.464 339.817 513.906 334.118C506.877 326.91 498.716 322.121 489.35 318.65C487.393 308.988 483.837 301.905 477.33 294.487L478.875 293.363C480.146 293.581 480.741 294.282 481.682 295.12C485.376 298.41 488.237 302.785 491.23 306.712C493.247 303.948 494.913 301.15 497.486 298.848C500.854 301.219 503.138 304.494 506.33 307.033C509.798 306 513.213 303.852 516.687 303.237L514.615 302.627C514.309 301.5 514.284 301.136 514.741 300.021C514.961 299.483 515.178 299.015 515.259 298.433C515.597 295.991 517.194 294.439 518.315 292.322C518.76 291.481 518.809 291.565 519.583 291.118C519.786 290.204 519.918 289.446 520.554 288.715L521.036 288.239C522.35 286.852 524.475 285.305 525.346 283.648L525.604 283.125L526.633 283.288L527.161 282.33Z"/>
	<defs>
		<linearGradient id="gradient_14" gradientUnits="userSpaceOnUse" x1="534.06219" y1="304.08435" x2="552.58783" y2="324.60477">
			<stop offset="0" stop-color="#002C58"/>
			<stop offset="1" stop-color="#004B85"/>
		</linearGradient>
	</defs>
	<path fill="url(#gradient_14)" transform="scale(0.394531 0.389974)" d="M546.492 298.733C550.366 306.484 554.617 314.739 557.06 323.067C553.856 323.257 550.514 323.566 547.312 323.232C543.567 322.841 540.021 321.669 536.492 320.416C534.797 319.815 532.755 319.256 531.306 318.188C528.956 316.455 527.347 313.586 525.024 311.654L524.607 311.311C530.516 309.103 536.064 306.077 541.463 302.847C542.77 302.066 544.408 301.647 545.311 300.386C545.828 299.882 546.112 299.347 546.492 298.733Z"/>
	<path fill="#045695" transform="scale(0.394531 0.389974)" d="M527.161 282.33C530.068 285.974 538.303 299.111 541.687 300.648L545.311 300.386C544.408 301.647 542.77 302.066 541.463 302.847C536.064 306.077 530.516 309.103 524.607 311.311C522.836 309.866 521.332 307.879 519.742 306.227C518.741 305.187 517.567 304.398 516.687 303.237L514.615 302.627C514.309 301.5 514.284 301.136 514.741 300.021C514.961 299.483 515.178 299.015 515.259 298.433C515.597 295.991 517.194 294.439 518.315 292.322C518.76 291.481 518.809 291.565 519.583 291.118C519.786 290.204 519.918 289.446 520.554 288.715L521.036 288.239C522.35 286.852 524.475 285.305 525.346 283.648L525.604 283.125L526.633 283.288L527.161 282.33Z"/>
	<defs>
		<linearGradient id="gradient_15" gradientUnits="userSpaceOnUse" x1="427.34479" y1="241.09473" x2="508.39206" y2="309.76611">
			<stop offset="0" stop-color="#001939"/>
			<stop offset="1" stop-color="#055089"/>
		</linearGradient>
	</defs>
	<path fill="url(#gradient_15)" transform="scale(0.394531 0.389974)" d="M481.952 239.674C488.558 242.736 494.396 247.722 499.764 252.58C502.504 255.06 505.34 257.504 507.824 260.245L509.989 262.169L527.161 282.33L526.633 283.288L525.604 283.125L525.346 283.648C524.475 285.305 522.35 286.852 521.036 288.239L520.554 288.715C519.918 289.446 519.786 290.204 519.583 291.118C518.809 291.565 518.76 291.481 518.315 292.322C517.194 294.439 515.597 295.991 515.259 298.433C515.178 299.015 514.961 299.483 514.741 300.021C514.284 301.136 514.309 301.5 514.615 302.627L516.687 303.237C513.213 303.852 509.798 306 506.33 307.033C503.138 304.494 500.854 301.219 497.486 298.848C494.913 301.15 493.247 303.948 491.23 306.712C488.237 302.785 485.376 298.41 481.682 295.12C480.741 294.282 480.146 293.581 478.875 293.363L477.33 294.487C471.117 288.965 465.011 285.254 457.005 282.725C444.606 278.808 433.298 280.741 421.913 286.625C419.192 276.502 416.398 267.654 409.975 259.185C412.293 257.985 417.411 258.73 420.074 258.737C424.224 258.749 428.566 258.747 432.682 258.174C434.738 258.037 438.356 257.346 440.225 258.012L440.434 257.435C440.839 257.05 441.171 256.829 441.684 256.602C444.677 255.279 447.405 253.234 450.059 251.327C450.866 251.579 451.811 251.771 452.547 252.18L481.952 239.674Z"/>
	<defs>
		<linearGradient id="gradient_16" gradientUnits="userSpaceOnUse" x1="463.9599" y1="245.36475" x2="482.96524" y2="274.9614">
			<stop offset="0" stop-color="#054A80"/>
			<stop offset="1" stop-color="#287BB4"/>
		</linearGradient>
	</defs>
	<path fill="url(#gradient_16)" transform="scale(0.394531 0.389974)" d="M481.952 239.674C488.558 242.736 494.396 247.722 499.764 252.58C502.504 255.06 505.34 257.504 507.824 260.245C503.565 262.927 498.566 263.222 494.164 265.375L493.738 265.58C492.561 266.183 489.247 269.641 488.544 269.721C487.692 269.817 485.407 269.006 484.524 268.749L476.803 266.029C474.742 265.317 472.51 265.395 470.355 265.411C464.715 265.451 458.825 267.113 453.304 266.791C450.315 266.616 447.734 265.704 444.987 264.582C443.506 263.977 441.523 263.412 440.674 262.049L440.653 261.346L440.225 258.012L440.434 257.435C440.839 257.05 441.171 256.829 441.684 256.602C444.677 255.279 447.405 253.234 450.059 251.327C450.866 251.579 451.811 251.771 452.547 252.18L481.952 239.674Z"/>
	<path fill="#2A95DB" transform="scale(0.394531 0.389974)" d="M450.059 251.327C450.866 251.579 451.811 251.771 452.547 252.18C450.458 253.536 448.457 254.93 446.55 256.536C444.946 257.887 442.684 260.862 440.653 261.346L440.225 258.012L440.434 257.435C440.839 257.05 441.171 256.829 441.684 256.602C444.677 255.279 447.405 253.234 450.059 251.327Z"/>
	<path fill="#DDC79C" transform="scale(0.394531 0.389974)" d="M203.374 353.304C202.906 350.473 203.799 346.969 204.302 344.154C206.931 329.418 211.951 314.526 218.465 301.049C221.53 294.706 225.429 288.761 229.311 282.894C241.082 265.107 254.51 249.913 270.968 236.345C277.083 231.304 283.121 226.564 289.948 222.49C298.997 217.091 309.625 212.758 319.578 209.346C328.035 206.447 336.558 203.574 345.29 201.612C384.6 192.78 425.529 197.424 461.714 215.305C469.636 219.22 477.754 223.682 485.055 228.67C495.779 235.997 505.902 244.903 515.157 253.971C517.635 256.399 522.264 259.962 523.374 263.249C520.042 261.607 513.729 262.29 509.989 262.169L507.824 260.245C505.34 257.504 502.504 255.06 499.764 252.58C494.396 247.722 488.558 242.736 481.952 239.674L481.416 239.529C479.78 239.05 478.094 237.772 476.625 236.906L467.997 232.054C462.46 229.092 456.659 226.46 450.823 224.153C429.178 215.596 405.1 211.058 381.81 211.367C372.739 211.488 363.676 212.226 354.821 214.265C341.514 217.33 329.442 222.522 316.929 227.756C316.33 228.006 315.237 228.519 314.601 228.551C314.367 228.563 313.1 227.818 312.832 227.69C307.774 225.276 303.43 227.286 298.729 229.688C288.939 234.688 280.164 242.427 272.152 249.89C261.999 259.346 252.26 269.135 243.832 280.194C238.005 287.839 233.029 296.143 228.398 304.549C224.117 312.319 220.13 320.273 217.459 328.758C216.391 332.152 213.826 337.47 213.865 340.905C210.571 344.984 207.234 349.768 203.374 353.304Z"/>
	<path fill="#50A4D1" transform="scale(0.394531 0.389974)" d="M213.865 340.905C213.826 337.47 216.391 332.152 217.459 328.758C220.13 320.273 224.117 312.319 228.398 304.549C233.029 296.143 238.005 287.839 243.832 280.194C252.26 269.135 261.999 259.346 272.152 249.89C280.164 242.427 288.939 234.688 298.729 229.688C303.43 227.286 307.774 225.276 312.832 227.69C313.1 227.818 314.367 228.563 314.601 228.551C315.237 228.519 316.33 228.006 316.929 227.756C329.442 222.522 341.514 217.33 354.821 214.265C363.676 212.226 372.739 211.488 381.81 211.367C405.1 211.058 429.178 215.596 450.823 224.153C456.659 226.46 462.46 229.092 467.997 232.054L476.625 236.906C478.094 237.772 479.78 239.05 481.416 239.529L481.952 239.674L452.547 252.18C451.811 251.771 450.866 251.579 450.059 251.327C447.405 253.234 444.677 255.279 441.684 256.602C441.171 256.829 440.839 257.05 440.434 257.435L440.225 258.012C438.356 257.346 434.738 258.037 432.682 258.174C428.566 258.747 424.224 258.749 420.074 258.737C417.411 258.73 412.293 257.985 409.975 259.185L405.409 253.691C393.307 241.734 376.931 234.588 359.812 234.68C346.968 234.749 335.594 239.661 326.536 248.815C314.989 260.486 309.138 276.367 308.259 292.515C300.626 291.442 294.283 292.327 287.961 297.042C281.652 301.749 276.417 309.96 275.195 317.791L274.514 317.918L259.785 320.009C243.822 323.087 225.98 329.799 213.865 340.905Z"/>
	<defs>
		<linearGradient id="gradient_17" gradientUnits="userSpaceOnUse" x1="410.97089" y1="244.77251" x2="439.25327" y2="258.66406">
			<stop offset="0" stop-color="#00336C"/>
			<stop offset="1" stop-color="#2A84C0"/>
		</linearGradient>
	</defs>
	<path fill="url(#gradient_17)" transform="scale(0.394531 0.389974)" d="M405.409 253.691L422.031 245.624C424.528 244.463 427.342 242.816 430.017 242.177C433.306 241.392 437.393 243.817 440.154 245.417C443.413 247.345 446.605 249.787 450.059 251.327C447.405 253.234 444.677 255.279 441.684 256.602C441.171 256.829 440.839 257.05 440.434 257.435L440.225 258.012C438.356 257.346 434.738 258.037 432.682 258.174C428.566 258.747 424.224 258.749 420.074 258.737C417.411 258.73 412.293 257.985 409.975 259.185L405.409 253.691Z"/>
	<path fill="#2479B3" transform="scale(0.394531 0.389974)" d="M440.154 245.417C443.413 247.345 446.605 249.787 450.059 251.327C447.405 253.234 444.677 255.279 441.684 256.602C441.171 256.829 440.839 257.05 440.434 257.435L440.225 258.012C438.356 257.346 434.738 258.037 432.682 258.174L432.412 257.561C432.806 255.889 434.744 254.593 435.868 253.382C437.548 251.574 440.83 250.466 443.191 249.816C443.888 249.624 443.844 249.543 444.296 249.027C443.884 248.478 443.508 247.997 442.875 247.688C441.657 247.091 441.267 246.864 440.403 245.747L440.154 245.417Z"/>
	<path fill="#03192D" transform="scale(0.394531 0.389974)" d="M275.195 317.791L398.478 317.654L441.598 318.001L443.685 318.834C444.098 321.36 442.806 324.279 442.331 326.81L442.203 327.428C442.081 328.108 442.102 327.835 442.178 328.44C442.26 329.099 442.006 329.55 441.942 330.188C441.677 332.808 441.441 337.425 442.538 339.773C442.828 340.393 442.675 340.999 442.644 341.657C442.552 343.662 443.911 347.763 444.757 349.638C445.373 351.004 445.768 352.451 446.43 353.814C447.142 355.282 448.106 356.591 448.803 358.073C449.357 359.251 450.391 360.183 451.058 361.382L451.729 362.33C452.808 363.887 453.869 365.666 454.589 367.418L455.438 367.691C454.775 367.826 454.324 367.87 453.645 367.823C452.897 367.771 452.743 367.887 452.062 368.066C450.082 368.588 447.788 368.041 446.232 369.482C445.977 369.535 445.133 369.761 444.889 369.735L419.214 374.033C416.326 374.579 412.855 374.924 410.106 375.872L406.302 376.561L392.194 380.599C391.583 380.794 388.177 382.138 387.762 382.029C387.349 381.92 385.579 380.011 385.164 379.631L376.978 372.496C356.34 356.042 329.825 345.557 303.259 346.527C288.832 347.053 274.75 351.432 261.594 357.107C252.485 361.035 243.299 365.822 235.46 371.963C231.394 375.148 228.002 378.915 224.511 382.697L222.798 382.253C219.718 381.433 216.664 381.238 213.5 380.999C212.71 376.688 211.776 372.656 209.284 368.97C206.42 364.736 201.86 361.577 196.818 360.615L196.484 360.555C199.076 358.394 201.188 355.858 203.374 353.304C207.234 349.768 210.571 344.984 213.865 340.905C225.98 329.799 243.822 323.087 259.785 320.009L274.514 317.918L275.195 317.791Z"/>
	<path fill="#013E7B" transform="scale(0.394531 0.389974)" d="M406.302 376.561C403.562 373.98 400.509 371.672 397.624 369.251C382.347 356.429 366.9 346.945 347.71 341.102C344.827 340.225 341.916 339.335 338.961 338.732C336.183 338.165 333.191 337.883 330.492 337.041C334.285 335.356 336.738 334.694 340.916 335.084C349.115 335.849 356.744 338.728 364.178 342.114C381.254 349.891 397.999 361.413 410.106 375.872L406.302 376.561Z"/>
	<defs>
		<linearGradient id="gradient_18" gradientUnits="userSpaceOnUse" x1="253.23157" y1="352.15692" x2="246.00488" y2="340.25577">
			<stop offset="0" stop-color="#003463"/>
			<stop offset="1" stop-color="#024C88"/>
		</linearGradient>
	</defs>
	<path fill="url(#gradient_18)" transform="scale(0.394531 0.389974)" d="M280.312 330.915C283.195 330.563 286.497 330.834 289.339 331.439C282.59 334.653 275.179 335.975 268.031 338.061C261.702 339.907 255.574 342.073 249.747 345.181C239.377 350.713 230.102 358.764 221.85 367.039C220.566 368.293 219.223 369.482 217.688 370.416L216.847 370.052L216.444 368.812C217.127 365.23 220.768 360.871 223.109 358.125C233.006 346.516 247.183 337.451 261.938 333.581C267.922 332.011 274.163 331.402 280.312 330.915Z"/>
	<path fill="#045695" transform="scale(0.394531 0.389974)" d="M398.478 317.654L441.598 318.001L443.685 318.834C444.098 321.36 442.806 324.279 442.331 326.81L442.203 327.428C442.081 328.108 442.102 327.835 442.178 328.44C442.26 329.099 442.006 329.55 441.942 330.188C441.677 332.808 441.441 337.425 442.538 339.773C442.828 340.393 442.675 340.999 442.644 341.657C442.552 343.662 443.911 347.763 444.757 349.638C445.373 351.004 445.768 352.451 446.43 353.814C447.142 355.282 448.106 356.591 448.803 358.073C449.357 359.251 450.391 360.183 451.058 361.382L451.729 362.33C452.808 363.887 453.869 365.666 454.589 367.418L455.438 367.691C454.775 367.826 454.324 367.87 453.645 367.823C452.897 367.771 452.743 367.887 452.062 368.066C450.082 368.588 447.788 368.041 446.232 369.482C445.977 369.535 445.133 369.761 444.889 369.735C443.756 368.212 441.618 367.481 439.961 366.622L433.716 363.051L410.268 347.512L410.438 347.25C411.179 347.576 411.799 347.86 412.469 348.324L414.207 349.477L414.154 340.005C414.156 338.396 413.913 336.301 414.365 334.757C414.571 334.05 414.723 333.384 414.807 332.649C415.03 330.681 415.525 328.314 416.034 326.385L416.22 325.695C416.506 324.435 417.05 323.565 417.575 322.416C418.167 321.121 418.176 319.739 417.664 318.426L398.972 317.714L398.478 317.654Z"/>
</svg>
