<?xml version="1.0" encoding="utf-8" ?>
<svg xmlns="http://www.w3.org/2000/svg" xmlns:xlink="http://www.w3.org/1999/xlink" width="328" height="300">
	<path fill="#041A2F" transform="scale(0.427083 0.390625)" d="M-0 -0L768 0L768 768L-0 768L0 -0Z"/>
	<path fill="#003E7F" transform="scale(0.427083 0.390625)" d="M295.131 346.896L296.301 347.245C296.704 348.371 296.929 349.47 297.146 350.644C295.26 352.803 293.33 355.522 291.069 357.263C291.058 356.459 291.13 356.375 291.566 355.688L291.191 354.75C291.527 353.565 291.592 353.414 292.502 352.594C292.952 353.414 292.684 353.084 293.25 353.625L294.188 352.875L294.073 351.62C293.925 350.73 293.812 350.641 293.136 350.115C291.15 351.23 290.513 352.976 288.081 353.496L287.735 353.562C289.784 351.357 292.873 349.601 294.447 347.061L295.131 346.896Z"/>
	<path fill="#11A7EB" transform="scale(0.427083 0.390625)" d="M303.138 322.295L304.258 322.97L304.312 323.625L303.567 324.373L303.862 324.913C301.962 327.016 299.418 328.822 297.17 330.551C292.489 334.151 287.38 337.742 283.16 341.861C281.097 343.445 279.071 345.12 276.75 346.312C276.099 345.689 276.167 345.604 276.059 344.693L303.138 322.295Z"/>
	<defs>
		<linearGradient id="gradient_0" gradientUnits="userSpaceOnUse" x1="403.12128" y1="246.61981" x2="400.39679" y2="250.12389">
			<stop offset="0" stop-color="#F5F9FC"/>
			<stop offset="1" stop-color="#C4F5FE"/>
		</linearGradient>
	</defs>
	<path fill="url(#gradient_0)" transform="scale(0.427083 0.390625)" d="M378.553 239.007C381.635 236.654 384.192 235.806 388.078 236.356C390.575 236.71 392.78 237.77 394.84 239.183C398.923 241.985 402.559 246.223 406.1 249.689C410.586 254.079 415.501 258.428 419.598 263.167C419.065 264.189 419.121 264.228 418.061 264.646C416.295 263.03 414.29 261.679 412.533 260.026C406.849 254.68 401.448 249.026 395.469 243.999C392.869 241.812 389.304 238.797 385.84 238.328C383.573 238.021 381.983 238.695 380.275 240.1L378.553 239.007Z"/>
	<path fill="#4EDCFD" transform="scale(0.427083 0.390625)" d="M378.553 239.007L380.275 240.1C372.17 248.474 365.367 258.259 358.089 267.367C346.501 281.87 334.06 295.712 320.986 308.89C315.523 314.397 310 320.146 303.862 324.913L303.567 324.373L304.312 323.625L304.258 322.97L303.138 322.295L311.557 314.824C325.799 301.213 339.187 286.112 351.781 270.971L365.555 254.184C369.719 248.973 373.67 243.581 378.553 239.007Z"/>
	<path fill="#A7CEDD" transform="scale(0.427083 0.390625)" d="M433.941 276.453C444.773 283.134 453.86 292.523 462.95 301.362C489.823 327.494 517.099 355.973 534.994 389.216L534.375 389.833C533.01 388.947 531.901 387.202 530.874 385.936L514.601 362.812C507.804 353.959 500.711 345.983 493.233 337.742C487.201 331.095 481.482 324.675 474.732 318.728C473.418 317.571 471.02 314.932 469.345 314.712C466.837 309.347 461.631 304.594 457.463 300.475C449.511 292.617 441.473 285.413 432.703 278.479C433.052 277.739 433.48 277.125 433.941 276.453Z"/>
	<path fill="#FBFAF9" transform="scale(0.427083 0.390625)" d="M532.98 366.045C534.506 365.29 537.335 365.207 539.098 364.816C546.288 363.22 553.348 361.307 560.639 360.182C562.414 374.039 562.101 387.375 560.387 401.214C560.211 402.635 560.194 405.885 559.536 406.972C549.367 394.354 541.965 379.536 532.98 366.045Z"/>
	<path fill="#FBFAF9" transform="scale(0.427083 0.390625)" d="M206.585 363.607C211.472 362.986 216.905 363.546 221.862 363.527C228.139 363.504 234.789 362.995 241.031 363.44C242.014 363.51 242.578 363.783 243.406 364.29L209.151 406.203C208.32 400.737 207.188 395.391 206.657 389.874C205.825 381.219 206.089 372.276 206.585 363.607Z"/>
	<path fill="#FCF0DA" transform="scale(0.427083 0.390625)" d="M516.459 343.961C517.101 343.535 517.421 343.389 518.2 343.277C521.083 342.86 524.011 341.556 526.747 340.563L545.393 333.88C548.799 332.716 552.28 331.233 555.888 330.912L558.602 344.324L560.639 360.182C553.348 361.307 546.288 363.22 539.098 364.816C537.335 365.207 534.506 365.29 532.98 366.045C532.435 365.699 531.576 364.174 531.164 363.617L525.54 355.988L516.459 343.961Z"/>
	<path fill="#F4E3CA" transform="scale(0.427083 0.390625)" d="M558.602 344.324L560.639 360.182C553.348 361.307 546.288 363.22 539.098 364.816C537.335 365.207 534.506 365.29 532.98 366.045C532.435 365.699 531.576 364.174 531.164 363.617L525.54 355.988C528.09 355.32 530.421 354.199 532.875 353.277C539.5 350.788 546.351 347.957 553.149 346.043C554.885 345.555 557.282 345.502 558.602 344.324Z"/>
	<path fill="#0886DB" transform="scale(0.427083 0.390625)" d="M283.16 341.861C283.552 341.81 283.97 341.859 284.337 341.71C284.814 341.517 285.685 340.484 286.125 340.125L296.858 331.605C297.449 332.26 297.251 331.849 297.35 332.694C297.606 334.886 299.351 336.075 299.786 338.12L300.025 338.967C300.199 339.594 300.289 340.122 300.284 340.779L294.29 346.835L294.447 347.061C292.873 349.601 289.784 351.357 287.735 353.562L254.063 382.063C243.935 390.715 233.551 400.878 222.087 407.7C226.755 399.851 232.981 393.064 238.714 385.99L254.282 367.125C260.952 359.148 267.857 351.157 276.059 344.693C276.167 345.604 276.099 345.689 276.75 346.312C279.071 345.12 281.097 343.445 283.16 341.861Z"/>
	<path fill="#4EDCFD" transform="scale(0.427083 0.390625)" d="M468.065 314.338L469.345 314.712C471.02 314.932 473.418 317.571 474.732 318.728C481.482 324.675 487.201 331.095 493.233 337.742C500.711 345.983 507.804 353.959 514.601 362.812L530.874 385.936C529.604 385.233 529.167 384.938 528.462 383.623C527.689 382.181 526.611 380.372 525.483 379.195C524.951 378.641 525.197 378.981 524.764 378.303L522.75 375.246L522.191 374.438C521.803 373.715 521.751 373.418 521.107 372.85C520.425 372.249 520.637 372.529 520.133 371.749L519.75 371.121L519.021 370.142C518.395 369.141 517.657 368.409 517.018 367.443L514.935 364.68C513.928 363.223 512.901 361.765 511.689 360.469C511.527 361.543 511.543 361.454 510.664 362.104C510.044 361.769 509.466 361.483 508.931 361.02L508.651 360.753L508.125 360.644C507.481 360.477 506.962 360.3 506.289 360.211L505.693 360.143C504.954 359.602 504.281 359.254 503.922 358.378L503.751 357.922C502.242 357.056 500.641 355.967 498.944 355.53C497.888 355.258 496.965 354.509 496.001 354.36C495.151 354.229 494.737 353.565 493.893 353.479C493.423 353.431 493.144 353.377 492.733 353.106L492.181 352.699C490.972 352.044 489.294 350.991 488.042 350.573C486.201 349.96 484.042 349.724 482.285 349.013L481.103 348.563L479.988 348.231L479.519 347.928C478.755 348.039 478.472 347.802 477.77 347.521C477.159 347.622 466.054 344.574 465.109 344.123C464.204 343.691 463.147 343.627 462.312 343.136L462.073 342.965C459.944 343.177 456.959 342.789 454.885 342.286L454.37 342.142C453.45 341.892 452.785 341.591 451.95 341.13C450.472 340.315 448.632 340.104 447.016 339.314L445.753 339.511L444.698 338.173C443.31 338.369 442.174 340.245 441.114 341.119C438.149 343.562 435.182 346.127 432.505 348.907L431.745 348.61L468.065 314.338Z"/>
	<defs>
		<linearGradient id="gradient_1" gradientUnits="userSpaceOnUse" x1="323.18549" y1="423.41473" x2="407.70587" y2="349.58255">
			<stop offset="0" stop-color="#0052B1"/>
			<stop offset="1" stop-color="#17BEFF"/>
		</linearGradient>
	</defs>
	<path fill="url(#gradient_1)" transform="scale(0.427083 0.390625)" d="M416.687 353.988L416.705 354.021C413.074 357.799 408.752 361.17 404.824 364.651L374.618 390.686C361.791 401.662 349.562 413.889 335.71 423.556C330.064 421.854 324.009 420.996 318.154 420.426C321.567 416.411 325.689 413.031 329.632 409.56L345.13 395.521L383.489 359.848C390.176 353.597 396.708 346.6 403.821 340.881L403.685 341.187C403.191 342.265 402.665 342.951 401.814 343.768C402.009 344.618 402.034 344.968 402.625 345.637L402.46 346.61C403.066 347.459 403.595 347.846 404.393 348.489C405.07 349.035 405.529 349.593 406.285 350.058C407.162 350.597 407.96 351.699 408.289 352.674L408.812 352.99L409.753 353.747L410.211 354.11C411.657 355.282 411.818 355.666 413.816 355.688L414.941 354.552C415.297 354.196 415.662 353.906 416.063 353.606L416.687 353.988Z"/>
	<defs>
		<linearGradient id="gradient_2" gradientUnits="userSpaceOnUse" x1="472.04568" y1="441.86407" x2="502.78253" y2="390.96912">
			<stop offset="0" stop-color="#004475"/>
			<stop offset="1" stop-color="#086091"/>
		</linearGradient>
	</defs>
	<path fill="url(#gradient_2)" transform="scale(0.427083 0.390625)" d="M475.282 386.016C479.266 385.685 483.45 385.522 487.418 386.086C496.548 387.384 504.753 391.125 512.416 396.188C518.548 400.238 524.209 405.049 529.351 410.286C532.562 413.555 535.971 417.383 537.811 421.626C538.567 423.371 538.887 425.35 539.264 427.207L501.545 421.693L500.536 421.522C477.397 417.424 453.203 416.634 429.798 417.975L432.938 412.469L434.344 410.438C441.604 401.036 450.988 392.659 462.33 388.688C466.555 387.208 470.852 386.535 475.282 386.016Z"/>
	<path fill="#FCF0DA" transform="scale(0.427083 0.390625)" d="M223.254 297.428L223.658 298.253L223.219 299.064L223.757 299.079C224.648 299.167 224.824 299.487 225.562 299.909C227.146 300.817 229.376 301.067 231.11 301.683L239.828 305.194L264.195 316.523C269.763 319.175 276.033 321.691 281.184 325.038C281.806 325.443 282.432 325.631 283.131 325.872C273.475 333.437 264.413 341.342 255.892 350.192L243.406 364.29C242.578 363.783 242.014 363.51 241.031 363.44C234.789 362.995 228.139 363.504 221.862 363.527C216.905 363.546 211.472 362.986 206.585 363.607C207.914 344.794 211.829 325.89 218.634 308.282C220.039 304.647 221.333 300.822 223.254 297.428Z"/>
	<path fill="#FCF0DA" transform="scale(0.427083 0.390625)" d="M258.464 244.621C263.886 249.59 268.529 255.187 274.133 260.053L316.545 294.318C317.223 294.89 316.885 294.678 317.69 295.017L310.031 303.083L293.801 317.332L283.131 325.872C282.432 325.631 281.806 325.443 281.184 325.038C276.033 321.691 269.763 319.175 264.195 316.523L239.828 305.194L231.11 301.683C229.376 301.067 227.146 300.817 225.562 299.909C224.824 299.487 224.648 299.167 223.757 299.079L223.219 299.064L223.658 298.253L223.254 297.428C223.415 296.155 224.48 294.416 225.045 293.25L230.315 283.084C234.343 275.21 239.618 267.801 244.915 260.728L258.464 244.621Z"/>
	<path fill="#F4E3CA" transform="scale(0.427083 0.390625)" d="M223.254 297.428C223.415 296.155 224.48 294.416 225.045 293.25L230.315 283.084L232.663 283.698C235.405 284.36 239.115 287.478 241.587 288.974L254.669 296.481L279.182 309.32L285.479 312.327C288.248 313.529 292.175 314.667 293.801 317.332L283.131 325.872C282.432 325.631 281.806 325.443 281.184 325.038C276.033 321.691 269.763 319.175 264.195 316.523L239.828 305.194L231.11 301.683C229.376 301.067 227.146 300.817 225.562 299.909C224.824 299.487 224.648 299.167 223.757 299.079L223.219 299.064L223.658 298.253L223.254 297.428Z"/>
	<path fill="#F4E3CA" transform="scale(0.427083 0.390625)" d="M258.464 244.621C263.886 249.59 268.529 255.187 274.133 260.053L316.545 294.318C317.223 294.89 316.885 294.678 317.69 295.017L310.031 303.083C309.426 302.28 309.021 302.293 308.062 302.096C304.557 301.377 300.71 298.205 297.693 296.227L275.625 280.886C270.167 276.786 264.906 272.307 259.216 268.537C257.349 267.3 255.421 266.074 253.404 265.096C251.676 264.259 248.329 263.314 247.045 262.065L246.773 261.75L244.915 260.728L258.464 244.621Z"/>
	<path fill="#FBFAF9" transform="scale(0.427083 0.390625)" d="M304.749 563.123C306.069 562.627 307.502 562.634 308.885 562.408L315.634 561.102C321.928 559.683 327.951 557.615 333.994 555.383L371.082 540.377C387.984 534.347 405.974 529.872 423.903 528.599C448.689 526.839 474.095 530.628 498.317 535.688C494.549 540.127 490.95 544.683 486.585 548.569C484.718 551.377 480.868 554.858 477.912 556.534L477.223 556.387C470.421 554.978 462.971 554.684 456.038 554.506C433.917 553.936 411.338 556.398 389.995 562.312C374.273 566.669 357.833 572.589 341.494 573.818C341.338 573.892 341.167 573.937 340.996 573.964C339.152 574.259 336.545 573.609 334.692 573.309C324.847 571.72 313.129 568.61 304.749 563.123Z"/>
	<path fill="#095C9A" transform="scale(0.427083 0.390625)" d="M341.494 573.818C342.046 573.194 342.594 572.698 343.263 572.202C350.814 566.589 359.942 562.664 368.585 559.033C400.233 545.737 433.735 542.007 467.761 545.695L486.585 548.569C484.718 551.377 480.868 554.858 477.912 556.534L477.223 556.387C470.421 554.978 462.971 554.684 456.038 554.506C433.917 553.936 411.338 556.398 389.995 562.312C374.273 566.669 357.833 572.589 341.494 573.818Z"/>
	<path fill="#11A7EB" transform="scale(0.427083 0.390625)" d="M431.745 348.61L432.505 348.907C435.182 346.127 438.149 343.562 441.114 341.119C442.174 340.245 443.31 338.369 444.698 338.173L445.753 339.511L447.016 339.314C448.632 340.104 450.472 340.315 451.95 341.13C452.785 341.591 453.45 341.892 454.37 342.142L454.885 342.286C456.959 342.789 459.944 343.177 462.073 342.965L462.312 343.136C463.147 343.627 464.204 343.691 465.109 344.123C466.054 344.574 477.159 347.622 477.77 347.521C478.472 347.802 478.755 348.039 479.519 347.928L479.988 348.231L481.103 348.563L482.285 349.013C484.042 349.724 486.201 349.96 488.042 350.573C489.294 350.991 490.972 352.044 492.181 352.699L492.733 353.106C493.144 353.377 493.423 353.431 493.893 353.479C494.737 353.565 495.151 354.229 496.001 354.36C496.965 354.509 497.888 355.258 498.944 355.53C500.641 355.967 502.242 357.056 503.751 357.922L503.922 358.378C504.281 359.254 504.954 359.602 505.693 360.143L506.289 360.211C506.962 360.3 507.481 360.477 508.125 360.644L508.651 360.753L508.931 361.02C509.466 361.483 510.044 361.769 510.664 362.104C511.543 361.454 511.527 361.543 511.689 360.469C512.901 361.765 513.928 363.223 514.935 364.68L517.018 367.443C517.657 368.409 518.395 369.141 519.021 370.142L519.75 371.121L520.133 371.749C520.637 372.529 520.425 372.249 521.107 372.85C521.751 373.418 521.803 373.715 522.191 374.438L522.75 375.246L524.764 378.303C525.197 378.981 524.951 378.641 525.483 379.195C526.611 380.372 527.689 382.181 528.462 383.623C529.167 384.938 529.604 385.233 530.874 385.936C531.901 387.202 533.01 388.947 534.375 389.833L534.994 389.216C536.664 391.309 537.97 393.785 539.332 396.093C541.698 400.101 543.957 404.082 545.87 408.329C538.325 401.839 530.931 394.725 522.87 388.917C509.437 379.237 493.485 373.659 476.858 374.793C454.821 376.295 437.393 385.698 423.09 402.33L420.394 405.556C415.747 404.992 410.913 404.921 407.035 408.023C405.055 409.606 403.738 411.903 403.557 414.455C403.421 416.379 403.871 418.537 404.385 420.378C401.823 421.675 399.263 423.016 396.589 424.068C389.655 426.795 381.494 428.863 375.72 433.756C374.536 434.76 373.091 436.034 372.622 437.567L372.286 439.32L372.261 439.36C368.765 439.829 364.828 438.923 361.377 438.363L339.192 434.406C343.227 429.04 349.16 424.342 354.005 419.667L394.692 381.805L420.413 358.573C424.127 355.27 427.774 351.581 431.745 348.61Z"/>
	<path fill="#FBFAF9" transform="scale(0.427083 0.390625)" d="M274.905 538.592C276.739 537.847 279.712 537.955 281.737 537.763L292.62 536.371C299.687 535.228 306.489 533.473 313.359 531.484C329.872 526.702 345.476 519.196 361.58 513.223C393.37 501.433 426.436 497.651 460.166 497.987L493.826 499.935C495.853 500.154 500.531 500.13 501.791 501.414C502.361 502.41 502.892 503.447 503.614 504.345C505.561 505.564 506.687 507.934 507.209 510.107C507.7 512.152 507.45 514.586 507.406 516.684C506.993 521.89 504.545 526.659 501.845 531.042C500.906 532.566 499.83 534.392 498.496 535.578L498.317 535.688C474.095 530.628 448.689 526.839 423.903 528.599C405.974 529.872 387.984 534.347 371.082 540.377L333.994 555.383C327.951 557.615 321.928 559.683 315.634 561.102L308.885 562.408C307.502 562.634 306.069 562.627 304.749 563.123C299.323 559.667 292.468 556.638 288.53 551.395L274.905 538.592Z"/>
	<defs>
		<linearGradient id="gradient_3" gradientUnits="userSpaceOnUse" x1="495.61591" y1="492.79419" x2="448.80804" y2="523.72888">
			<stop offset="0" stop-color="#79AEC5"/>
			<stop offset="1" stop-color="#BFD6E5"/>
		</linearGradient>
	</defs>
	<path fill="url(#gradient_3)" transform="scale(0.427083 0.390625)" d="M406.897 517.026L406.849 516.331C407.119 516.314 408.083 516.327 408.375 516.191C409.595 515.624 410.998 515.441 412.5 515.441C413.209 514.968 413.203 515.066 414 515.066C414.904 514.464 415.929 514.691 417 514.691C417.768 514.179 417.982 514.316 418.875 514.316C419.777 513.715 421.158 513.941 422.25 513.941C423.018 513.429 423.232 513.566 424.125 513.566C425.065 512.94 426.722 513.191 427.875 513.191L428.438 512.816C429.162 512.91 429.774 512.891 430.5 512.816C431.522 512.135 433.172 512.528 434.418 512.392L435.562 512.25L436.125 512.438C437.315 511.652 440.226 512.06 441.721 512.058C440.645 510.659 438.852 509.154 438.107 507.586C437.692 506.713 437 505.664 436.882 504.709L436.877 504.374L435.822 503.353C434.727 503.308 433.582 503.192 432.498 503.373L414.708 505.741L411.917 506.23C410.731 506.502 409.793 506.579 408.571 506.515C413.056 505.098 418.331 504.655 423 504.047C444.637 501.229 465.616 501.473 487.312 503.209C492.147 503.595 497.221 503.716 501.973 504.679C502.725 504.832 502.919 504.622 503.614 504.345C505.561 505.564 506.687 507.934 507.209 510.107C507.7 512.152 507.45 514.586 507.406 516.684C497.536 514.776 487.653 513.82 477.631 513.115C462.425 512.045 447.237 511.95 432.053 513.409L415.712 515.638C412.819 516.106 409.813 516.837 406.897 517.026Z"/>
	<defs>
		<linearGradient id="gradient_4" gradientUnits="userSpaceOnUse" x1="400.36105" y1="549.44995" x2="395.67383" y2="519.09137">
			<stop offset="0" stop-color="#004A8E"/>
			<stop offset="1" stop-color="#006FC4"/>
		</linearGradient>
	</defs>
	<path fill="url(#gradient_4)" transform="scale(0.427083 0.390625)" d="M406.897 517.026C409.813 516.837 412.819 516.106 415.712 515.638L432.053 513.409C447.237 511.95 462.425 512.045 477.631 513.115C487.653 513.82 497.536 514.776 507.406 516.684C506.993 521.89 504.545 526.659 501.845 531.042C500.906 532.566 499.83 534.392 498.496 535.578L498.317 535.688C474.095 530.628 448.689 526.839 423.903 528.599C405.974 529.872 387.984 534.347 371.082 540.377L333.994 555.383C327.951 557.615 321.928 559.683 315.634 561.102L308.885 562.408C307.502 562.634 306.069 562.627 304.749 563.123C299.323 559.667 292.468 556.638 288.53 551.395C293.016 550.255 297.658 549.762 302.199 548.874C308.311 547.678 314.356 546.096 320.315 544.29C331.782 540.815 342.786 535.777 354.105 531.82C365.332 527.894 376.862 523.996 388.389 521.062L406.897 517.026Z"/>
	<defs>
		<linearGradient id="gradient_5" gradientUnits="userSpaceOnUse" x1="319.16019" y1="362.75323" x2="431.5806" y2="269.4256">
			<stop offset="0" stop-color="#00A4FD"/>
			<stop offset="1" stop-color="#36EDFE"/>
		</linearGradient>
	</defs>
	<path fill="url(#gradient_5)" transform="scale(0.427083 0.390625)" d="M380.275 240.1C381.983 238.695 383.573 238.021 385.84 238.328C389.304 238.797 392.869 241.812 395.469 243.999C401.448 249.026 406.849 254.68 412.533 260.026C414.29 261.679 416.295 263.03 418.061 264.646C419.121 264.228 419.065 264.189 419.598 263.167C424.139 267.855 428.62 272.637 433.941 276.453C433.48 277.125 433.052 277.739 432.703 278.479C441.473 285.413 449.511 292.617 457.463 300.475C461.631 304.594 466.837 309.347 469.345 314.712L468.065 314.338C467.545 313.945 466.38 312.787 465.756 312.866C463.304 313.173 458.599 317.689 456.614 319.325L427.88 344.448C424.327 347.537 420.601 351.399 416.687 353.988L416.063 353.606C415.662 353.906 415.297 354.196 414.941 354.552L413.816 355.688C411.818 355.666 411.657 355.282 410.211 354.11L409.753 353.747L408.812 352.99L408.289 352.674C407.96 351.699 407.162 350.597 406.285 350.058C405.529 349.593 405.07 349.035 404.393 348.489C403.595 347.846 403.066 347.459 402.46 346.61L402.625 345.637C402.034 344.968 402.009 344.618 401.814 343.768C402.665 342.951 403.191 342.265 403.685 341.187L403.821 340.881L404.208 340.402C407.896 335.923 412.974 331.864 417.156 327.802L441.29 304.628C436.751 306.65 432.85 309.608 428.916 312.591C420.243 319.166 412.276 326.694 404.174 333.949L380.725 354.176L361.185 371.092L335.06 393.644L317.722 407.579C313.786 410.728 309.567 413.788 306.179 417.537C291.36 414.845 274.086 418.108 259.405 420.488C255.679 420.857 251.92 421.836 248.25 422.574C240.691 424.095 233.005 425.636 225.737 428.255C226.392 424.494 227.02 421.453 229.225 418.255C234.889 410.037 243.618 403.095 250.898 396.278C264.465 383.573 278.533 370.998 291.069 357.263C293.33 355.522 295.26 352.803 297.146 350.644C296.929 349.47 296.704 348.371 296.301 347.245L295.131 346.896L294.447 347.061L294.29 346.835L300.284 340.779C300.289 340.122 300.199 339.594 300.025 338.967L299.786 338.12C299.351 336.075 297.606 334.886 297.35 332.694C297.251 331.849 297.449 332.26 296.858 331.605L286.125 340.125C285.685 340.484 284.814 341.517 284.337 341.71C283.97 341.859 283.552 341.81 283.16 341.861C287.38 337.742 292.489 334.151 297.17 330.551C299.418 328.822 301.962 327.016 303.862 324.913C310 320.146 315.523 314.397 320.986 308.89C334.06 295.712 346.501 281.87 358.089 267.367C365.367 258.259 372.17 248.474 380.275 240.1Z"/>
	<path fill="#4EDCFD" transform="scale(0.427083 0.390625)" d="M419.598 263.167C424.139 267.855 428.62 272.637 433.941 276.453C433.48 277.125 433.052 277.739 432.703 278.479C431.358 277.836 429.99 276.381 428.888 275.35C425.152 271.855 422.023 267.936 418.061 264.646C419.121 264.228 419.065 264.189 419.598 263.167Z"/>
	<defs>
		<linearGradient id="gradient_6" gradientUnits="userSpaceOnUse" x1="280.99951" y1="325.45074" x2="343.83743" y2="360.17603">
			<stop offset="0" stop-color="#005EBB"/>
			<stop offset="1" stop-color="#16BDFF"/>
		</linearGradient>
	</defs>
	<path fill="url(#gradient_6)" transform="scale(0.427083 0.390625)" d="M300.218 341.75C301.142 339.957 303.845 337.896 305.317 336.441L321.849 320.801C326.931 316.264 332.241 311.879 337.02 307.017C348.9 294.932 359.49 281.118 369.405 267.386L374.317 260.568C376.874 256.68 379.049 252.728 382.229 249.288L383.625 250.156C385.59 251.301 386.889 252.428 388.476 254.045C387.101 259.381 384.608 264.208 381.715 268.875C375.468 278.953 367.43 288.104 360.063 297.375L322.259 342.938L322.392 343.311C323.217 342.556 324.066 341.827 324.762 340.948L329.719 335.407C330.756 334.1 332.145 332.88 333.066 331.528C334.623 329.243 336.925 327.123 338.727 324.965C339.678 325.295 339.777 325.37 340.406 326.156C339.997 327.112 339.385 327.54 338.627 328.219L338.625 328.688L336.377 330.752C336.373 331.878 335.322 332.027 334.781 332.906C333.879 334.374 332.214 335.287 331.406 336.656C329.931 339.156 327.04 341.421 324.938 343.5L324.938 344.047C327.188 342.138 329.269 340.009 331.387 337.953C332.718 336.662 334.288 335.358 335.358 333.838C336.492 332.229 338.034 330.873 339.28 329.336L351.997 313.129C353.383 311.326 355.179 309.865 356.206 307.783L356.378 307.372C356.44 308.05 356.481 308.522 356.299 309.189C355.785 311.07 356.739 311.697 357.503 313.329L359.098 316.519C359.447 317.431 359.798 317.931 360.328 318.716C361.32 320.184 362.08 321.701 361.737 323.43L362.214 324.057L363.662 326.08L317.633 362.331L297.375 379.104C285.601 388.956 274.109 399.09 264.893 411.436C263.126 413.803 260.855 416.263 260.162 419.174C260.03 419.728 259.766 420.063 259.405 420.488C255.679 420.857 251.92 421.836 248.25 422.574C240.691 424.095 233.005 425.636 225.737 428.255C226.392 424.494 227.02 421.453 229.225 418.255C234.889 410.037 243.618 403.095 250.898 396.278C264.465 383.573 278.533 370.998 291.069 357.263C293.33 355.522 295.26 352.803 297.146 350.644C296.929 349.47 296.704 348.371 296.301 347.245L295.131 346.896C296.352 345.08 298.632 343.312 300.218 341.75Z"/>
	<path fill="#095C9A" transform="scale(0.427083 0.390625)" d="M300.218 341.75C300.607 342.604 300.497 342.604 300.185 343.507C300.696 343.497 300.378 343.528 301.125 343.312L301.393 342.752C301.597 345.314 301.271 345.893 299.634 347.811L297.146 350.644C296.929 349.47 296.704 348.371 296.301 347.245L295.131 346.896C296.352 345.08 298.632 343.312 300.218 341.75Z"/>
	<defs>
		<linearGradient id="gradient_7" gradientUnits="userSpaceOnUse" x1="275.47031" y1="332.04166" x2="415.05112" y2="356.50763">
			<stop offset="0" stop-color="#004EA8"/>
			<stop offset="1" stop-color="#0FC0FF"/>
		</linearGradient>
	</defs>
	<path fill="url(#gradient_7)" transform="scale(0.427083 0.390625)" d="M363.662 326.08L382.906 310.285L397.475 298.859C400.339 296.529 403.798 293.825 405.705 290.625L405.98 290.171C407.349 287.824 407.751 284.986 408.194 282.342C409.156 276.612 409.561 269.84 412.866 264.911L428.27 286.925C425.632 294.754 419.062 301.52 413.159 307.069L392.062 325.793L367.494 350.25L367.964 350.327C369.608 348.706 371.535 347.077 372.995 345.303C374.076 343.989 376.061 341.041 377.813 340.746C378.007 341.68 378.057 342.201 378.942 342.766L379.901 343.128C382.943 344.213 385.5 346.624 388.875 346.312C388.282 346.939 387.957 347.077 387.281 347.531C386.3 348.191 385.69 349.59 384.562 350.014C383.809 350.297 383.306 351.101 382.761 351.677C381.905 352.58 382.776 351.719 381.656 352.406L380.383 353.798L380.725 354.176L361.185 371.092L335.06 393.644L317.722 407.579C313.786 410.728 309.567 413.788 306.179 417.537C291.36 414.845 274.086 418.108 259.405 420.488C259.766 420.063 260.03 419.728 260.162 419.174C260.855 416.263 263.126 413.803 264.893 411.436C274.109 399.09 285.601 388.956 297.375 379.104L317.633 362.331L363.662 326.08Z"/>
	<path fill="#FCF0DA" transform="scale(0.427083 0.390625)" d="M258.464 244.621C269.248 234.129 280.307 223.998 292.912 215.699C308.755 205.269 326.183 198.644 344.625 194.525C358.468 191.433 372.623 189.832 386.812 190.02C398.445 190.174 410.525 191.346 421.876 193.902C455.388 201.448 484.763 219.417 508.523 243.965C520.826 256.676 532.008 271.363 540.117 287.111C544.187 295.014 547.434 303.353 550.369 311.734L555.888 330.912C552.28 331.233 548.799 332.716 545.393 333.88L526.747 340.563C524.011 341.556 521.083 342.86 518.2 343.277C517.421 343.389 517.101 343.535 516.459 343.961L504.947 329.955C497.724 321.647 489.427 314.018 481.625 306.253C471.934 296.608 462.323 286.534 451.937 277.649C446.196 272.738 439.491 269.048 433.859 264.081C428.943 259.747 424.448 254.689 419.796 250.061L406.308 237.428C399.816 231.322 394.315 226.187 384.765 226.56C380.837 226.713 377.426 227.739 374.337 230.219C371.592 232.422 369.37 235.486 367.186 238.239L357.451 250.18L317.69 295.017C316.885 294.678 317.223 294.89 316.545 294.318L274.133 260.053C268.529 255.187 263.886 249.59 258.464 244.621Z"/>
	<path fill="#F4E3CA" transform="scale(0.427083 0.390625)" d="M550.369 311.734L555.888 330.912C552.28 331.233 548.799 332.716 545.393 333.88L526.747 340.563C524.011 341.556 521.083 342.86 518.2 343.277C517.421 343.389 517.101 343.535 516.459 343.961L504.947 329.955C507.22 328.152 510.266 327.252 512.935 326.135C522.041 322.319 531.31 319.563 540.6 316.299C543.613 315.24 546.395 313.607 549.453 312.698C550.024 312.529 550.054 312.221 550.369 311.734Z"/>
	<path fill="#FBFAF9" transform="scale(0.427083 0.390625)" d="M372.286 439.32C378.2 438.508 383.999 436.935 389.846 435.731L418.32 431.016C453.317 426.845 488.203 430.085 522.805 436.013C534.435 438.005 546.248 440.087 557.56 443.495L551.944 460.603C551.12 463.002 550.337 466.353 548.93 468.436L517.154 457.592C517.143 460.643 517.295 463.964 516.46 466.932L513.558 478.524C510.733 487.063 507.916 494.665 501.791 501.414C500.531 500.13 495.853 500.154 493.826 499.935L460.166 497.987C426.436 497.651 393.37 501.433 361.58 513.223C345.476 519.196 329.872 526.702 313.359 531.484C306.489 533.473 299.687 535.228 292.62 536.371L281.737 537.763C279.712 537.955 276.739 537.847 274.905 538.592C272.842 536.921 271.031 534.511 269.363 532.454C265.407 527.578 262.068 522.923 259.495 517.16C258.894 516.039 258.439 514.947 258.105 513.716C257.438 511.25 256.654 506.802 258.148 504.573C258.817 503.577 260.04 502.748 261.206 502.468C266.948 501.088 273.656 501.538 279.566 500.92C290.595 499.767 301.426 497.596 312.17 494.898C309.809 492.599 302.416 492.521 299.075 492.227L272.771 489.53C267.578 488.789 260.466 487.953 256.183 484.668C252.334 481.715 250.351 476.747 249.722 472.052C248.415 467.009 248.015 462.036 247.805 456.861L219.291 466.982C215.981 459.562 213.928 451.315 211.584 443.542C235.727 436.234 261.118 430.328 286.422 429.435C298.331 429.015 310.143 429.895 321.935 431.516C327.655 432.302 333.577 433.048 339.192 434.406L361.377 438.363C364.828 438.923 368.765 439.829 372.261 439.36L372.286 439.32Z"/>
	<defs>
		<linearGradient id="gradient_8" gradientUnits="userSpaceOnUse" x1="496.52255" y1="446.61316" x2="438.0889" y2="495.05731">
			<stop offset="0" stop-color="#3D9ECD"/>
			<stop offset="1" stop-color="#B5DFF1"/>
		</linearGradient>
	</defs>
	<path fill="url(#gradient_8)" transform="scale(0.427083 0.390625)" d="M410.896 478.658C411.729 477.752 412.279 477.307 413.54 477.218C414.338 477.163 414.93 477.083 415.688 476.816C416.65 476.478 417.492 476.468 418.5 476.441C419.209 475.968 419.203 476.066 420 476.066C420.738 475.574 420.839 475.691 421.687 475.691C421.545 474.908 421.454 474.219 421.025 473.532C420.618 472.88 420.439 472.284 420.196 471.569C419.667 470.01 419.379 468.562 419.139 466.936C416.661 467.501 412.455 468.514 409.966 468.25C424.997 465.357 440.252 463.669 455.592 463.57L494.316 464.867L501.562 465.302C503.596 465.488 505.798 466.32 507.7 465.516C508.753 465.577 509.558 465.667 510.562 465.941L511.873 466.187C513.33 466.465 514.984 466.979 516.46 466.932L513.558 478.524C504.229 476.27 494.009 475.593 484.448 474.893C475 474.202 465.482 473.29 456 473.327C440.671 473.387 425.903 475.792 410.896 478.658Z"/>
	<path fill="#11A7EB" transform="scale(0.427083 0.390625)" d="M507.7 465.516C498.569 463.399 489.14 462.224 479.819 461.303C464.254 459.766 448.555 459.373 432.954 460.581C415.342 461.944 398.018 465.418 380.969 469.871C382.795 467.873 384.632 466.273 386.906 464.798C394.215 460.058 402.79 457.777 411.178 455.787C446.248 447.465 482.197 450.199 517.154 457.592C517.143 460.643 517.295 463.964 516.46 466.932C514.984 466.979 513.33 466.465 511.873 466.187L510.562 465.941C509.558 465.667 508.753 465.577 507.7 465.516Z"/>
	<path fill="#A7CEDD" transform="scale(0.427083 0.390625)" d="M247.805 456.861C253.192 454.71 260.418 453.906 266.186 453.052C287.589 449.882 311.273 450.396 332.387 455.437C341.29 457.562 349.973 460.784 358.354 464.438L370.363 470.15C371.846 470.881 374.026 471.654 375.244 472.709C368.01 474.404 361.145 476.114 354.163 478.718C350.059 480.249 346.138 482.259 341.998 483.693C332.834 488.087 322.145 492.769 312.17 494.898C309.809 492.599 302.416 492.521 299.075 492.227L272.771 489.53C267.578 488.789 260.466 487.953 256.183 484.668C252.334 481.715 250.351 476.747 249.722 472.052C248.415 467.009 248.015 462.036 247.805 456.861Z"/>
	<defs>
		<linearGradient id="gradient_9" gradientUnits="userSpaceOnUse" x1="255.89056" y1="491.08981" x2="334.52991" y2="466.38419">
			<stop offset="0" stop-color="#0050A2"/>
			<stop offset="1" stop-color="#008BDD"/>
		</linearGradient>
	</defs>
	<path fill="url(#gradient_9)" transform="scale(0.427083 0.390625)" d="M249.722 472.052L250.052 471.964C253.453 471.023 256.534 469.497 260.062 468.67C282.75 463.351 309.218 464.121 329.905 475.68L341.998 483.693C332.834 488.087 322.145 492.769 312.17 494.898C309.809 492.599 302.416 492.521 299.075 492.227L272.771 489.53C267.578 488.789 260.466 487.953 256.183 484.668C252.334 481.715 250.351 476.747 249.722 472.052Z"/>
	<defs>
		<linearGradient id="gradient_10" gradientUnits="userSpaceOnUse" x1="392.71869" y1="525.24994" x2="383.39529" y2="485.63684">
			<stop offset="0" stop-color="#0059AB"/>
			<stop offset="1" stop-color="#0087DB"/>
		</linearGradient>
	</defs>
	<path fill="url(#gradient_10)" transform="scale(0.427083 0.390625)" d="M410.896 478.658C425.903 475.792 440.671 473.387 456 473.327C465.482 473.29 475 474.202 484.448 474.893C494.009 475.593 504.229 476.27 513.558 478.524C510.733 487.063 507.916 494.665 501.791 501.414C500.531 500.13 495.853 500.154 493.826 499.935L460.166 497.987C426.436 497.651 393.37 501.433 361.58 513.223C345.476 519.196 329.872 526.702 313.359 531.484C306.489 533.473 299.687 535.228 292.62 536.371L281.737 537.763C279.712 537.955 276.739 537.847 274.905 538.592C272.842 536.921 271.031 534.511 269.363 532.454C265.407 527.578 262.068 522.923 259.495 517.16C270.902 517.382 282.5 517.319 293.812 515.719C313.522 512.93 331.594 506.546 350.144 499.689C370.22 492.267 390.253 484.354 410.896 478.658Z"/>
</svg>
